<?xml version="1.0" encoding="UTF-8"?>
<svg width="256px" height="128px" viewBox="0 0 256 128" version="1.1" xmlns="http://www.w3.org/2000/svg" xmlns:xlink="http://www.w3.org/1999/xlink">
    <!-- Generator: Sketch 40.3 (33839) - http://www.bohemiancoding.com/sketch -->
    <title>logo-white</title>
    <desc>Created with Sketch.</desc>
    <defs></defs>
    <g id="gram-logo" stroke="none" stroke-width="1" fill="none" fill-rule="evenodd">
        <g id="logo-white" fill="#FFFFFF">
            <path d="M21.6128736,102.121073 C20.0888889,102.121073 19.3961686,101.428352 19.3961686,100.042912 L19.3961686,99.4887356 C19.3961686,98.103295 20.0888889,97.2720307 21.6128736,97.2720307 L35.8829119,97.2720307 C37.6839847,97.2720307 38.376705,97.964751 38.376705,99.3501916 L38.376705,99.9043678 C38.376705,101.428352 37.6839847,102.121073 35.8829119,102.121073 L21.6128736,102.121073 Z M27.154636,29.6611545 C11.4991571,29.6611545 0.831264368,37.4196219 0.831264368,52.3823806 C0.831264368,63.3273614 4.2948659,68.8691239 10.6678927,73.4410779 C4.15632184,76.0734151 0,79.6755606 0,86.0485875 C0,91.867438 6.82666667,95.6522656 6.82666667,95.6522656 C3.5016092,97.4533384 1.38544061,101.14989 1.38544061,104.613492 C1.38544061,115.974105 13.577318,118.052266 26.7390038,118.052266 C46.4122605,118.052266 57.2186973,112.094871 57.2186973,96.5779361 C57.2186973,87.295484 51.8154789,82.72353 41.2861303,82.72353 L22.4441379,82.72353 C20.7816092,82.72353 20.0888889,82.0308097 20.0888889,80.506825 C20.0888889,78.8442963 20.9201533,78.151576 22.582682,78.151576 L29.2327969,78.151576 C45.9966284,78.151576 54.309272,70.5316526 54.309272,55.9845262 C54.309272,51.8282043 53.4755556,47.865599 49.8758621,45.1780894 L59.8510345,45.1780894 L59.8510345,29.6611545 L27.154636,29.6611545 Z M28.2629885,46.149272 C32.2807663,46.149272 33.2505747,48.9201533 33.2505747,54.6004598 C33.2505747,59.72659 32.2807663,62.7745594 28.5400766,62.7745594 C24.799387,62.7745594 23.5524904,59.72659 23.5524904,54.3233716 C23.5524904,49.0586973 24.5222989,46.149272 28.2629885,46.149272 L28.2629885,46.149272 Z M88.0049042,58.7567816 C88.0049042,51.6910345 89.667433,50.1670498 96.8717241,50.1670498 L103.244751,50.1670498 L103.244751,29.6611545 C103.244751,29.6611545 102.4,29.1377778 97.8488889,29.1377778 C93.2977778,29.1377778 90.1461372,31.3223112 86.4028472,34.5080903 L85.2309375,29.6611545 L65.00659,29.6611545 L65.00659,96.0251341 L88.0049042,96.0251341 L88.0049042,58.7567816 Z M121.918774,97.4105747 C130.508506,97.4105747 135.395556,96.2666667 138.405517,90.3448276 C141.084444,96.2666667 145.225399,97.4044444 151.324444,97.4044444 C154.788046,97.4044444 161.564444,96.0277344 161.564444,96.0277344 L161.564444,80.3377778 C157.408123,80.3377778 156.554789,79.2613027 156.554789,75.6591571 C156.554789,66.0996169 157.24751,55.5702682 157.24751,46.9805364 C157.24751,34.0959387 151.567203,28 137.020077,28 C127.044904,28 116.053333,30.2755556 108.088889,33.6888889 L108.088889,54.1688889 C119.466667,49.6177778 126.075096,48.7816092 130.785594,48.7816092 C133.556475,48.7816092 134.664828,50.4441379 134.664828,52.6608429 L134.664828,55.9859004 C116.238467,57.6484291 105.016398,61.3891188 105.016398,77.737318 C105.016398,89.7906513 110.835249,97.4105747 121.918774,97.4105747 Z M130.508506,81.2009195 C127.59908,81.2009195 126.21364,79.3998467 126.21364,76.0747893 C126.21364,71.2257471 129.261609,69.8403065 135.634636,69.0090421 L135.634636,75.7977011 C135.634636,79.5383908 133.972107,81.2009195 130.508506,81.2009195 L130.508506,81.2009195 Z M222.749425,34.5115709 L221.363985,35.7584674 C219.285824,30.7708812 214.852414,28 206.955402,28 C198.504215,28 192.614392,31.3223112 188.871111,34.5080903 L187.699201,29.6611545 L166.500536,29.6611545 L166.500536,96.0277344 L189.775939,96.0251341 L189.775939,51.2754023 C191.438467,50.0285057 193.932261,49.3357854 196.28751,49.3357854 C198.36567,49.3357854 199.335479,50.7212261 199.335479,52.799387 L199.335479,96.0251341 L222.887969,96.0251341 L222.887969,51.2754023 C224.550498,50.0285057 227.044291,49.3357854 229.39954,49.3357854 C231.477701,49.3357854 232.44751,50.7212261 232.44751,52.799387 L232.44751,96.0251341 L256,96.0251341 L256,44.9023755 C256,34.2344828 251.982222,28 240.067433,28 C231.616245,28 226.490115,31.3250575 222.749425,34.5115709 Z" id="gram"></path>
        </g>
    </g>
</svg>